REM DIRINDEX 1\2,1\3,1\4,1\6,1\5\7,1\5\8
REM DIRNAME cjc114,folder01,folder02,folder03,folder04,folder05,folder06,folder07
TITLE ""
FILE "DB4500_5th_1A_06.mp3" MP3
  TRACK 01 AUDIO
    TITLE "2:cjc114_0081"
    INDEX 01 00:00:00
  TRACK 02 AUDIO
    TITLE "0:"
    INDEX 01 00:01:15
  TRACK 03 AUDIO
    TITLE "3:cjc114_0082"
    INDEX 01 00:01:42
  TRACK 04 AUDIO
    TITLE "0:"
    INDEX 01 00:02:59
  TRACK 05 AUDIO
    TITLE "4:cjc114_0083"
    INDEX 01 00:03:12
  TRACK 06 AUDIO
    TITLE "0:"
    INDEX 01 00:06:33
  TRACK 07 AUDIO
    TITLE "2:cjc114_0084"
    INDEX 01 00:07:11
  TRACK 08 AUDIO
    TITLE "0:"
    INDEX 01 00:08:15
  TRACK 09 AUDIO
    TITLE "3:cjc114_0085"
    INDEX 01 00:08:42
  TRACK 10 AUDIO
    TITLE "0:"
    INDEX 01 00:09:49
  TRACK 11 AUDIO
    TITLE "4:cjc114_0086"
    INDEX 01 00:10:02
  TRACK 12 AUDIO
    TITLE "0:"
    INDEX 01 00:14:23
  TRACK 13 AUDIO
    TITLE "2:cjc114_0087"
    INDEX 01 00:15:01
  TRACK 14 AUDIO
    TITLE "0:"
    INDEX 01 00:15:70
  TRACK 15 AUDIO
    TITLE "3:cjc114_0088"
    INDEX 01 00:16:22
  TRACK 16 AUDIO
    TITLE "0:"
    INDEX 01 00:17:29
  TRACK 17 AUDIO
    TITLE "4:cjc114_0089"
    INDEX 01 00:17:57
  TRACK 18 AUDIO
    TITLE "0:"
    INDEX 01 00:21:17
  TRACK 19 AUDIO
    TITLE "2:cjc114_0090"
    INDEX 01 00:21:72
  TRACK 20 AUDIO
    TITLE "0:"
    INDEX 01 00:23:14
  TRACK 21 AUDIO
    TITLE "3:cjc114_0091"
    INDEX 01 00:23:44
  TRACK 22 AUDIO
    TITLE "0:"
    INDEX 01 00:24:74
  TRACK 23 AUDIO
    TITLE "4:cjc114_0092"
    INDEX 01 00:25:27
  TRACK 24 AUDIO
    TITLE "0:"
    INDEX 01 00:27:71
  TRACK 25 AUDIO
    TITLE "2:cjc114_0093"
    INDEX 01 00:28:49
  TRACK 26 AUDIO
    TITLE "0:"
    INDEX 01 00:29:52
  TRACK 27 AUDIO
    TITLE "3:cjc114_0094"
    INDEX 01 00:30:06
  TRACK 28 AUDIO
    TITLE "0:"
    INDEX 01 00:31:29
  TRACK 29 AUDIO
    TITLE "4:cjc114_0095"
    INDEX 01 00:31:59
  TRACK 30 AUDIO
    TITLE "0:"
    INDEX 01 00:35:57
  TRACK 31 AUDIO
    TITLE "2:cjc114_0096"
    INDEX 01 00:36:33
  TRACK 32 AUDIO
    TITLE "0:"
    INDEX 01 00:37:42
  TRACK 33 AUDIO
    TITLE "3:cjc114_0097"
    INDEX 01 00:37:69
  TRACK 34 AUDIO
    TITLE "0:"
    INDEX 01 00:39:19
  TRACK 35 AUDIO
    TITLE "4:cjc114_0098"
    INDEX 01 00:39:47
  TRACK 36 AUDIO
    TITLE "0:"
    INDEX 01 00:43:35
  TRACK 37 AUDIO
    TITLE "2:cjc114_0099"
    INDEX 01 00:44:12
  TRACK 38 AUDIO
    TITLE "0:"
    INDEX 01 00:45:49
  TRACK 39 AUDIO
    TITLE "3:cjc114_0100"
    INDEX 01 00:45:73
  TRACK 40 AUDIO
    TITLE "0:"
    INDEX 01 00:47:32
  TRACK 41 AUDIO
    TITLE "4:cjc114_0101"
    INDEX 01 00:47:56
  TRACK 42 AUDIO
    TITLE "0:"
    INDEX 01 00:50:46
  TRACK 43 AUDIO
    TITLE "2:cjc114_0102"
    INDEX 01 00:51:24
  TRACK 44 AUDIO
    TITLE "0:"
    INDEX 01 00:52:30
  TRACK 45 AUDIO
    TITLE "3:cjc114_0103"
    INDEX 01 00:52:57
  TRACK 46 AUDIO
    TITLE "0:"
    INDEX 01 00:54:17
  TRACK 47 AUDIO
    TITLE "4:cjc114_0104"
    INDEX 01 00:54:44
  TRACK 48 AUDIO
    TITLE "0:"
    INDEX 01 00:57:48
  TRACK 49 AUDIO
    TITLE "2:cjc114_0105"
    INDEX 01 00:58:26
  TRACK 50 AUDIO
    TITLE "0:"
    INDEX 01 00:59:41
  TRACK 51 AUDIO
    TITLE "3:cjc114_0106"
    INDEX 01 00:59:67
  TRACK 52 AUDIO
    TITLE "0:"
    INDEX 01 01:01:33
  TRACK 53 AUDIO
    TITLE "4:cjc114_0107"
    INDEX 01 01:01:64
  TRACK 54 AUDIO
    TITLE "0:"
    INDEX 01 01:06:08
  TRACK 55 AUDIO
    TITLE "2:cjc114_0108"
    INDEX 01 01:06:57
  TRACK 56 AUDIO
    TITLE "0:"
    INDEX 01 01:07:72
  TRACK 57 AUDIO
    TITLE "3:cjc114_0109"
    INDEX 01 01:08:19
  TRACK 58 AUDIO
    TITLE "0:"
    INDEX 01 01:09:67
  TRACK 59 AUDIO
    TITLE "4:cjc114_0110"
    INDEX 01 01:10:20
  TRACK 60 AUDIO
    TITLE "0:"
    INDEX 01 01:14:59
  TRACK 61 AUDIO
    TITLE "2:cjc114_0111"
    INDEX 01 01:15:39
  TRACK 62 AUDIO
    TITLE "0:"
    INDEX 01 01:16:40
  TRACK 63 AUDIO
    TITLE "3:cjc114_0112"
    INDEX 01 01:16:67
  TRACK 64 AUDIO
    TITLE "0:"
    INDEX 01 01:18:58
  TRACK 65 AUDIO
    TITLE "4:cjc114_0113"
    INDEX 01 01:19:09
  TRACK 66 AUDIO
    TITLE "0:"
    INDEX 01 01:21:31
  TRACK 67 AUDIO
    TITLE "4:cjc114_0114"
    INDEX 01 01:22:03
  TRACK 68 AUDIO
    TITLE "0:"
    INDEX 01 01:23:73
